<svg id="Layer_1" data-name="Layer 1" xmlns="http://www.w3.org/2000/svg" viewBox="0 0 184.43 37.1"><defs><style>.cls-1{fill:#E50914;}</style></defs><path class="cls-1" d="M12.87,80.12h7.9q2.94,17.16,5.95,34.3l-5.81.75c-.42-2.73-.62-4.1-1-6.85v.1c-2.64.29-4,.44-6.6.75-.43,2.88-.64,4.33-1.07,7.23-2.15.32-3.22.48-5.37.82Q9.75,98.67,12.87,80.12Zm6.32,23.59c-1-6.88-1.54-10.35-2.57-17.37h-.1C15.49,93.41,15,97,14,104.21,16.05,104,17.1,103.9,19.19,103.71Z" transform="translate(-6.83 -80.12)"/><path class="cls-1" d="M31.58,80.12h7.31C41.14,88,42.26,91.88,44.5,99.5h.1c0-7.75,0-11.63.07-19.38h5.19q0,16-.1,31.91c-2.4.2-3.6.31-6,.53-2.77-9.2-4.15-13.89-6.92-23.49h-.1c0,9.68,0,14.52-.08,24.2-2.08.22-3.11.33-5.19.57Q31.53,97,31.58,80.12Z" transform="translate(-6.83 -80.12)"/><path class="cls-1" d="M56.17,80.12H62q0,15.51-.1,31c-2.33.15-3.5.23-5.83.4Q56.12,95.83,56.17,80.12Z" transform="translate(-6.83 -80.12)"/><path class="cls-1" d="M68.31,80.12h8.32c1.46,8.67,2.2,13,3.67,21.58h.1c1.51-8.66,2.26-13,3.75-21.57h8.32q0,14.94,0,29.88l-5.52.09c0-9.07,0-13.61,0-22.69h-.1c-1.71,9.09-2.57,13.64-4.28,22.8-2,0-2.94.08-4.89.15-1.68-9.09-2.52-13.65-4.2-22.84h-.1c0,9.21,0,13.81-.06,23l-5.1.24Z" transform="translate(-6.83 -80.12)"/><path class="cls-1" d="M98.78,80.12h15.9v4.3l-10.08,0c0,3.16,0,4.74,0,7.9,3.2,0,4.81,0,8,0v4.28c-3.21,0-4.81-.05-8-.07,0,3.67,0,5.51,0,9.18,4,0,6.05.06,10.09.15,0,1.72,0,2.58,0,4.3-6.38-.17-9.57-.22-16-.21Z" transform="translate(-6.83 -80.12)"/><path class="cls-1" d="M120,80.12H135.4c0,1.77,0,2.66,0,4.43l-9.6-.07c0,3.39,0,5.09,0,8.48l7.54.16v4.41c-3-.1-4.52-.14-7.54-.22,0,5.31,0,8,0,13.27-2.34-.11-3.51-.16-5.85-.24Z" transform="translate(-6.83 -80.12)"/><path class="cls-1" d="M140.17,80.12H146l.1,27.2c3.84.26,5.75.41,9.59.72l0,4.66c-6.17-.6-9.26-.86-15.43-1.29Q140.22,95.77,140.17,80.12Z" transform="translate(-6.83 -80.12)"/><path class="cls-1" d="M160.37,80.12h5.83l.09,33.7c-2.32-.27-3.49-.4-5.82-.64Q160.43,96.65,160.37,80.12Z" transform="translate(-6.83 -80.12)"/><path class="cls-1" d="M177.68,97.28c-2.58-7-3.87-10.45-6.45-17.16h6.15c1.58,4.53,2.36,6.83,3.94,11.5h.1c1.61-4.53,2.41-6.83,4-11.51H191c-2.57,7.25-3.85,10.76-6.4,17.63,2.69,7.57,4,11.46,6.71,19.47-2.44-.38-3.66-.57-6.11-.93-1.69-5.29-2.54-7.89-4.24-13h-.1c-1.73,4.8-2.59,7.15-4.32,11.8l-5.49-.71C173.67,107.7,175,104.29,177.68,97.28Z" transform="translate(-6.83 -80.12)"/></svg>